<?xml version="1.0" encoding="utf-8"?>
<!-- Generator: Adobe Illustrator 26.5.0, SVG Export Plug-In . SVG Version: 6.00 Build 0)  -->
<svg version="1.0"
	 id="svg2" xmlns:inkscape="http://www.inkscape.org/namespaces/inkscape" xmlns:sodipodi="http://sodipodi.sourceforge.net/DTD/sodipodi-0.dtd" xmlns:cc="http://creativecommons.org/ns#" xmlns:dc="http://purl.org/dc/elements/1.1/" xmlns:rdf="http://www.w3.org/1999/02/22-rdf-syntax-ns#" xmlns:svg="http://www.w3.org/2000/svg" inkscape:version="0.92.4 (5da689c313, 2019-01-14)"
	 xmlns="http://www.w3.org/2000/svg" xmlns:xlink="http://www.w3.org/1999/xlink" x="0px" y="0px" viewBox="0 0 1166 689.22"
	 style="enable-background:new 0 0 1166 689.22;" xml:space="preserve">
<style type="text/css">
	.st0{fill:#212E5C;}
</style>
<sodipodi:namedview  bordercolor="#666666" borderopacity="1" fit-margin-bottom="0" fit-margin-left="0" fit-margin-right="0" fit-margin-top="0" gridtolerance="10" guidetolerance="10" id="namedview9" inkscape:current-layer="svg2" inkscape:cx="736.68648" inkscape:cy="18.262439" inkscape:pageopacity="0" inkscape:pageshadow="2" inkscape:window-height="1017" inkscape:window-maximized="1" inkscape:window-width="1920" inkscape:window-x="1912" inkscape:window-y="-8" inkscape:zoom="0.62617588" objecttolerance="10" pagecolor="#ffffff" showgrid="false">
	</sodipodi:namedview>
<path id="path14" inkscape:connector-curvature="0" class="st0" d="M148.56,383.33c-15.41,0-28.21-10.97-31.08-25.6L83,364.39
	c5.88,30.82,33.04,54.06,65.56,54.06c18.54,0,35.25-7.57,47.4-19.72l-28.21-21.81C162.39,380.85,155.74,383.33,148.56,383.33
	 M148.56,320c7.18,0,13.84,2.48,19.19,6.53l28.21-21.81C183.81,292.58,167.1,285,148.56,285c-32.52,0-59.67,23.25-65.56,54.06
	l34.47,6.79C120.22,331.1,133.02,320,148.56,320 M624.13,388.03c-17.5,0-30.29-12.8-32.25-31.6v-9.92
	c1.96-18.54,14.76-31.34,32.25-31.34c19.98,0,34.08,15.02,34.08,36.3C658.09,373.02,644.12,388.03,624.13,388.03 M634.45,285
	c-17.76,0-32.51,7.7-42.7,20.76v-17.89h-36.04v170.02h36.04v-60.46c10.06,13.32,24.94,21.02,42.7,21.02
	c34.08,0,58.76-27.68,58.76-66.86C693.21,312.55,668.53,285,634.45,285 M777.31,388.03c-19.2,0-35.26-16.71-35.26-36.57
	c0-19.71,16.06-36.3,35.26-36.3c18.93,0,35,16.58,35,36.3C812.44,371.32,796.37,388.03,777.31,388.03 M777.31,285
	c-38,0-69.86,30.3-69.86,66.6c0,36.31,31.86,66.86,69.86,66.86c37.74,0,69.34-30.56,69.34-66.86C846.65,315.3,815.05,285,777.31,285
	 M863.75,415.45h36.04V243.08h-36.04V415.45z M1036.65,336.32c-17.24-4.7-22.46-6.66-22.46-13.58c0-4.44,6.14-7.7,15.02-7.7
	c10.84,0,24.16,4.18,35.78,11.36l14.5-25.59c-14.1-9.41-32.13-15.8-50.27-15.8c-30.03,0-50.01,17.24-49.88,41.4
	c0.26,25.2,20.5,32.39,46.62,38.79c13.06,3.39,22.46,5.88,22.46,13.84c0,5.62-6.92,9.67-16.58,9.67c-16.97,0-31.34-6.14-42.7-14.36
	l-15.41,24.81c15.28,12.28,36.96,19.2,57.46,19.2c31.34,0,51.84-16.06,51.84-41.13C1083,349.38,1058.58,341.93,1036.65,336.32
	 M923.43,415.45h36.04V287.87h-36.04L923.43,415.45z M941.58,231.46c-11.1,0-19.72,9.14-19.72,19.2c0,10.84,8.62,19.72,19.72,19.72
	c10.58,0,19.19-8.88,19.19-19.72C960.91,240.6,952.29,231.46,941.58,231.46 M506.09,243.22h-36.04l-13.45,27.42h36.04L506.09,243.22
	z M447.2,337.5c4.7-12.8,16.06-20.76,29.64-20.76c14.63,0,23.89,8.1,27.42,20.76H447.2z M475.4,284.87
	c-37.22,0-65.68,27.94-65.68,66.34c0,39.17,29.64,67.12,67.64,67.12c18.81,0,40.74-7.83,52.11-19.72l-22.99-23.5
	c-6.92,6.66-19.19,11.36-29.38,11.36c-15.02,0-26.12-9.4-30.29-23.24h91.93C538.74,315.3,515.36,284.87,475.4,284.87 M346.52,285
	c-16.58,0-30.82,7.31-38.52,18.94v-16.06h-36.04v127.58H308v-75.61c0-13.84,11.88-24.55,26.9-24.55c14.37,0,24.16,10.84,24.16,26.64
	v73.52h34.73v-81.23C393.92,305.37,374.2,285,346.52,285 M228.6,231.33c-11.1,0-19.72,9.14-19.72,19.19
	c0,10.84,8.62,19.72,19.72,19.72c10.57,0,19.2-8.88,19.2-19.72C247.8,240.47,239.18,231.33,228.6,231.33 M210.32,415.45h36.04
	V287.87h-36.04V415.45"/>
</svg>
